<svg xmlns="http://www.w3.org/2000/svg" xmlns:xlink="http://www.w3.org/1999/xlink" viewBox="0 0 500 500"><defs><clipPath id="a"><circle cx="250.0968" cy="250" r="250" style="fill:none"/></clipPath></defs><title>sin_logo</title><circle cx="250" cy="250" r="250" style="fill:#ebebeb"/><g style="clip-path:url(#a)"><rect x="61.8538" y="229.7258" width="376.2925" height="65.4686" style="fill:#bfbfbf"/><rect x="61.8538" y="295.1945" width="376.2925" height="204.8055" style="fill:#d6d6d6"/><rect x="100.9436" y="343.6667" width="57.0566" height="82" style="fill:#8490a1"/><polygon points="100.943 343.667 100.943 354.656 148.226 425.667 158 425.667 158 343.667 100.943 343.667" style="fill:#97a1b3"/><rect x="341.0909" y="343.6667" width="57.0566" height="82" style="fill:#8490a1"/><polygon points="341.091 343.667 341.091 354.656 388.373 425.667 398.147 425.667 398.147 343.667 341.091 343.667" style="fill:#97a1b3"/><rect x="196.6673" y="326" width="106.6661" height="142.9662" style="fill:#7d8483"/><polygon points="196.667 326 196.667 345.16 285.06 468.966 303.333 468.966 303.333 326 196.667 326" style="fill:#a7b0b4"/><path d="M16.4972,274.7316a5.6061,5.6061,0,0,0,5.2472,7.58H478.2551a5.6063,5.6063,0,0,0,5.1781-7.7546l-24.0971-58.0822H38.4115Z" style="fill:#97a1b3"/><path d="M413.2261,105.3343a5.6062,5.6062,0,0,0-5.178-3.4576H85.4005a5.6063,5.6063,0,0,0-5.2472,3.6321L67.1447,140.0914H427.6459Z" style="fill:#737780"/><polygon points="427.646 140.091 67.145 140.091 54.228 174.429 441.892 174.429 427.646 140.091" style="fill:#8490a1"/><polygon points="54.228 174.429 38.412 216.475 459.336 216.475 441.892 174.429 54.228 174.429" style="fill:#97a1b3"/><polygon points="351.012 215.458 148.918 233.145 155.894 216.952 146.185 201.885 348.279 184.198 342.056 201.17 351.012 215.458" style="fill:none;stroke:#ebebeb;stroke-miterlimit:10;stroke-width:5px"/><circle cx="250.0968" cy="189.6494" r="65.686" style="fill:#ebebeb"/><rect x="172.0568" y="207.3589" width="155.8864" height="31.3793" transform="translate(-18.4964 22.6481) rotate(-5.0022)" style="fill:#97a1b3"/><rect x="172.0568" y="207.3589" width="155.8864" height="31.3793" transform="translate(-18.4964 22.6481) rotate(-5.0022)" style="fill:none;stroke:#ebebeb;stroke-miterlimit:10;stroke-width:5px"/><polygon points="196.667 468.966 161 500 329.5 500 303.333 468.966 196.667 468.966" style="fill:#bfbfbf"/></g></svg>