<svg xmlns="http://www.w3.org/2000/svg" viewBox="0 0 500 197.8763"><title>logo-red-color</title><path d="M269.9415,162.5466V140.2925a2.067,2.067,0,0,1,2.0751-2.0718,2.1,2.1,0,0,1,2.1129,2.0718v20.1428h10.221a2.0933,2.0933,0,0,1,0,4.1864H272.0166A2.07,2.07,0,0,1,269.9415,162.5466Z" style="fill:#d2121d"/><path d="M303.1384,158.3964H293.973L292.1248,163.3a2.1132,2.1132,0,0,1-1.96,1.322,2.186,2.186,0,0,1-.7169-.1151,2.1384,2.1384,0,0,1-1.2447-2.7131l8.335-22.2179a2.1133,2.1133,0,0,1,1.9994-1.3187,2.0761,2.0761,0,0,1,1.9979,1.3187l8.3366,22.2179a2.1385,2.1385,0,0,1-1.2447,2.7131,2.1045,2.1045,0,0,1-2.6408-1.2069Zm-1.5456-4.147-3.0552-8.11-3.0551,8.11Z" style="fill:#d2121d"/><path d="M312.5356,162.5466V140.2925a2.0681,2.0681,0,0,1,2.0752-2.0718h5.3555A7.1659,7.1659,0,0,1,325.7,149.6848a8.079,8.079,0,0,1-4.2621,14.9369H314.762a.0382.0382,0,0,1-.0378-.04c-.0756,0-.0756.04-.1134.04A2.0944,2.0944,0,0,1,312.5356,162.5466Zm4.1881-14.1049h3.2426a3.0283,3.0283,0,0,0,2.98-3.0551,2.9612,2.9612,0,0,0-2.98-2.9795h-3.2426Zm0,11.9936h4.7142a3.9036,3.9036,0,0,0,0-7.8072h-4.7142Z" style="fill:#d2121d"/><path d="M354.2583,141.4994a13.8581,13.8581,0,0,1,0,19.0872,12.3586,12.3586,0,0,1-9.0141,4.0351,12.7364,12.7364,0,0,1-9.241-4.0351,14.0625,14.0625,0,0,1,0-19.0872,12.5863,12.5863,0,0,1,9.241-4.0351A12.212,12.212,0,0,1,354.2583,141.4994Zm-.49,9.5436a9.776,9.776,0,0,0-2.5651-6.6,8.14,8.14,0,0,0-12.0692,0,9.5988,9.5988,0,0,0-2.5651,6.6,9.4427,9.4427,0,0,0,2.5651,6.5641,8.0671,8.0671,0,0,0,12.0692,0A9.6151,9.6151,0,0,0,353.7683,151.043Z" style="fill:#d2121d"/><path d="M381.4618,161.4909a2.0847,2.0847,0,0,1-1.32,2.6408,3.4138,3.4138,0,0,1-.83.1118h-.0378a2.7456,2.7456,0,0,1-1.47-.4144,3.6877,3.6877,0,0,1-1.2069-1.322,10.1263,10.1263,0,0,1-.7926-4.5251,3.19,3.19,0,0,0-.4522-1.6213,3.5243,3.5243,0,0,0-1.1313-1.0951,7.2216,7.2216,0,0,0-2.1129-.9044h-4.4511v8.1854a2.101,2.101,0,0,1-2.1113,2.0751,2.07,2.07,0,0,1-2.0751-2.0751V140.2925a2.0446,2.0446,0,0,1,2.0751-2.0718h6.7515a8.064,8.064,0,0,1,5.1286,14.2923,5.8717,5.8717,0,0,1,1.32,1.3977,7.1341,7.1341,0,0,1,1.2447,4.0713,9.5125,9.5125,0,0,0,.1513,2.2264A2.0307,2.0307,0,0,1,381.4618,161.4909ZM376.18,146.3271a3.8855,3.8855,0,0,0-3.8839-3.92h-4.64v7.7677h4.64A3.87,3.87,0,0,0,376.18,146.3271Z" style="fill:#d2121d"/><path d="M399.5327,158.3964h-9.1653L388.5192,163.3a2.1134,2.1134,0,0,1-1.96,1.322,2.193,2.193,0,0,1-.7169-.1151,2.1385,2.1385,0,0,1-1.2447-2.7131l8.335-22.2179a2.1133,2.1133,0,0,1,2-1.3187,2.08,2.08,0,0,1,1.9994,1.3187l8.335,22.2179a2.1384,2.1384,0,0,1-1.2447,2.7131,2.1045,2.1045,0,0,1-2.6408-1.2069Zm-1.5456-4.147-3.0551-8.11-3.0552,8.11Z" style="fill:#d2121d"/><path d="M408.9316,162.5466V140.2925a2.067,2.067,0,0,1,2.0751-2.0718,2.1,2.1,0,0,1,2.113,2.0718v20.1428h10.221a2.0933,2.0933,0,0,1,0,4.1864h-12.334A2.07,2.07,0,0,1,408.9316,162.5466Z" style="fill:#d2121d"/><path d="M438.7363,140.2925a2.0446,2.0446,0,0,1,2.0752-2.0718,2.0991,2.0991,0,0,1,2.1113,2.0718v22.2541a2.1019,2.1019,0,0,1-2.1113,2.0751,2.0474,2.0474,0,0,1-2.0752-2.0751Z" style="fill:#d2121d"/><path d="M447.3,151.043a13.8489,13.8489,0,0,1,13.8418-13.5787,14.11,14.11,0,0,1,8.7132,2.9433,2.1646,2.1646,0,0,1-2.6408,3.43,9.4118,9.4118,0,0,0-6.0724-2.0718,9.99,9.99,0,0,0-6.7877,2.7131A9.3114,9.3114,0,0,0,451.6,151.043a9.1783,9.1783,0,0,0,2.7542,6.5641,9.99,9.99,0,0,0,6.7877,2.7131,9.4859,9.4859,0,0,0,6.0724-2.0718,2.2844,2.2844,0,0,1,3.0173.4143,2.2235,2.2235,0,0,1-.3765,3.0157,14.11,14.11,0,0,1-8.7132,2.9433A13.7988,13.7988,0,0,1,447.3,151.043Z" style="fill:#d2121d"/><path d="M476.049,162.5466V140.2925a2.0446,2.0446,0,0,1,2.0751-2.0718,2.0766,2.0766,0,0,1,2.113,2.0718v9.0536h9.7671v-9.0536a2.0446,2.0446,0,0,1,2.0752-2.0718,2.0752,2.0752,0,0,1,2.1113,2.0718v22.2541a2.0779,2.0779,0,0,1-2.1113,2.0751,2.0474,2.0474,0,0,1-2.0752-2.0751V153.493h-9.7671v9.0536a2.0794,2.0794,0,0,1-2.113,2.0751A2.0473,2.0473,0,0,1,476.049,162.5466Z" style="fill:#d2121d"/><path d="M312.2364,33.2546c17.5513,0,27.0242,9.7606,27.0242,21.9679,0,11.622-7.09,25.8025-29.9873,26.9634l22.3741,32.4291H312.7017l-21.0373-32.37h-4.3015l-6.8568,32.37H263.943l17.3179-81.36ZM294.6275,48.2474l-4.2423,19.8764H307.53c11.913,0,14.9352-5.87,14.9352-11.2175,0-5.2881-4.3-8.6589-12.204-8.6589Z" style="fill:#fff"/><path d="M405.8551,81.025H364.8839l-4.01,18.7123h43.2387l-3.1965,14.8777H341.1729l17.3179-81.36H417.653l-3.1965,14.8777H371.8574l-3.8346,18.015h41.0288Z" style="fill:#fff"/><path d="M462.4555,33.2546C485.76,33.2546,500,47.6653,500,67.5417c0,26.036-18.191,47.0733-49.98,47.0733H416.3705l17.3178-81.36ZM446.9973,48.4217,436.13,99.4479h15.8068c19.411,0,30.9179-12.8454,30.9179-29.9889,0-12.3784-6.9735-21.0373-22.259-21.0373Z" style="fill:#fff"/><path d="M215.1313,71.675a28.171,28.171,0,0,0-16.5179-2.15L166.8568,43.314a14.1921,14.1921,0,0,0-13.9939-2.3518L91.36,63.9007a14.1924,14.1924,0,0,0-9.0355,10.9425h0A14.1928,14.1928,0,0,0,101.28,90.4966l46.8744-17.4831a14.1927,14.1927,0,0,1,13.9938,2.3513l14.7635,12.184a28.2288,28.2288,0,0,0,13.3328,34.8248l-3.2853,19.5155a14.1919,14.1919,0,0,1-9.0355,10.942l-46.9146,17.4975a14.1927,14.1927,0,0,0-4.0778,24.2408l.069.0572a14.193,14.193,0,0,0,13.998,2.3546l61.4931-22.9348a14.1942,14.1942,0,0,0,9.0363-10.9441l7.0483-41.9077a28.2346,28.2346,0,0,0-3.4448-49.52Z" style="fill:#d2121d"/><path d="M149.3959,123.0305l.0148-.0884a14.1921,14.1921,0,0,0-18.9556-15.6493L83.5389,124.7911a14.192,14.192,0,0,1-13.9939-2.3522L54.8013,110.2694a28.2158,28.2158,0,0,0-13.3822-34.68l3.3141-19.6746a14.1933,14.1933,0,0,1,9.0355-10.9408l46.8759-17.4831a14.1929,14.1929,0,0,0,4.0771-24.2421h0A14.1936,14.1936,0,0,0,90.7253.8949L29.2232,23.833a14.1933,14.1933,0,0,0-9.0354,10.9413L13.123,76.7288A28.248,28.248,0,0,0,33.1811,128.4L64.8677,154.56a14.1913,14.1913,0,0,0,13.9956,2.353l61.4963-22.936A14.1932,14.1932,0,0,0,149.3959,123.0305Z" style="fill:#fff"/><path d="M492.1068,27.0234v2.5949h-1.3019V23.1267h2.2472a2.6915,2.6915,0,0,1,1.7366.506,1.7129,1.7129,0,0,1,.6264,1.4111,1.4234,1.4234,0,0,1-.2653.8628,1.8474,1.8474,0,0,1-.7736.5863,1.3967,1.3967,0,0,1,.8271.5662,1.7949,1.7949,0,0,1,.2519.9809v.4771a2.3565,2.3565,0,0,0,.0736.5684.7814.7814,0,0,0,.2519.4392v.0936h-1.342a.72.72,0,0,1-.23-.4726,4.15,4.15,0,0,1-.0513-.6376v-.4592a1.0314,1.0314,0,0,0-.2653-.7557,1.0065,1.0065,0,0,0-.7513-.27Zm0-1.0031h.923a1.2205,1.2205,0,0,0,.8159-.2319.8593.8593,0,0,0,.2675-.6866.9449.9449,0,0,0-.27-.7089,1.0894,1.0894,0,0,0-.7914-.2631h-.9453Z" style="fill:#fff"/><path d="M493.0948,19.6528a6.72,6.72,0,1,0,6.72,6.72A6.7277,6.7277,0,0,0,493.0948,19.6528Zm0,12.08a5.3607,5.3607,0,1,1,5.3611-5.36A5.3669,5.3669,0,0,1,493.0948,31.7332Z" style="fill:#fff"/></svg>