<svg xmlns="http://www.w3.org/2000/svg" viewBox="0 0 213.6842 328.9439"><title>logo-red-black</title><path d="M5.43,327.0655V306.9206a1.8712,1.8712,0,0,1,1.8785-1.8755,1.9006,1.9006,0,0,1,1.9126,1.8755v18.2337h9.2524a1.8949,1.8949,0,0,1,0,3.79H7.3084A1.8737,1.8737,0,0,1,5.43,327.0655Z" style="fill:#d2121d"/><path d="M35.4806,323.3086H27.1839l-1.6731,4.4386a1.9128,1.9128,0,0,1-1.7742,1.1967,1.9768,1.9768,0,0,1-.649-.1042,1.9358,1.9358,0,0,1-1.1268-2.4559l7.5451-20.1122a1.9129,1.9129,0,0,1,1.81-1.1937,1.8791,1.8791,0,0,1,1.8085,1.1937l7.5465,20.1122a1.9357,1.9357,0,0,1-1.1267,2.4559,1.905,1.905,0,0,1-2.3905-1.0925Zm-1.3992-3.7539-2.7656-7.3411L28.55,319.5547Z" style="fill:#d2121d"/><path d="M43.9871,327.0655V306.9206a1.8721,1.8721,0,0,1,1.8785-1.8755h4.8479a6.4867,6.4867,0,0,1,5.19,10.3776,7.3133,7.3133,0,0,1-3.8581,13.5212H46.0025a.0345.0345,0,0,1-.0342-.0357c-.0685,0-.0685.0357-.1027.0357A1.8959,1.8959,0,0,1,43.9871,327.0655Zm3.7912-12.7681h2.9352a2.7413,2.7413,0,0,0,2.6971-2.7656,2.6806,2.6806,0,0,0-2.6971-2.6971H47.7783Zm0,10.8569h4.2674a3.5337,3.5337,0,0,0,0-7.0673H47.7783Z" style="fill:#d2121d"/><path d="M81.7555,308.0131a12.5446,12.5446,0,0,1,0,17.2781,11.1874,11.1874,0,0,1-8.16,3.6527,11.5293,11.5293,0,0,1-8.3652-3.6527,12.73,12.73,0,0,1,0-17.2781,11.3936,11.3936,0,0,1,8.3652-3.6527A11.0549,11.0549,0,0,1,81.7555,308.0131Zm-.4436,8.6391a8.8492,8.8492,0,0,0-2.322-5.9747,7.368,7.368,0,0,0-10.9253,0,8.6889,8.6889,0,0,0-2.322,5.9747,8.5476,8.5476,0,0,0,2.322,5.9419,7.3024,7.3024,0,0,0,10.9253,0A8.7035,8.7035,0,0,0,81.3119,316.6522Z" style="fill:#d2121d"/><path d="M106.3807,326.11a1.8871,1.8871,0,0,1-1.1953,2.3905,3.093,3.093,0,0,1-.7517.1012H104.4a2.4863,2.4863,0,0,1-1.3307-.3751,3.34,3.34,0,0,1-1.0925-1.1968,9.1675,9.1675,0,0,1-.7174-4.0962,2.8874,2.8874,0,0,0-.4094-1.4676,3.1916,3.1916,0,0,0-1.024-.9914,6.5383,6.5383,0,0,0-1.9127-.8186H93.8835v7.41a1.9019,1.9019,0,0,1-1.9112,1.8784,1.8736,1.8736,0,0,1-1.8784-1.8784V306.9206a1.8508,1.8508,0,0,1,1.8784-1.8755H98.084a7.3,7.3,0,0,1,4.6425,12.9378,5.314,5.314,0,0,1,1.1952,1.2651,6.4581,6.4581,0,0,1,1.1268,3.6855,8.6152,8.6152,0,0,0,.1369,2.0154A1.8384,1.8384,0,0,1,106.3807,326.11ZM101.6,312.3832a3.5173,3.5173,0,0,0-3.5157-3.5485H93.8835v7.0316H98.084A3.5032,3.5032,0,0,0,101.6,312.3832Z" style="fill:#d2121d"/><path d="M122.7389,323.3086h-8.2967l-1.673,4.4386a1.9131,1.9131,0,0,1-1.7743,1.1967,1.9837,1.9837,0,0,1-.649-.1042,1.9357,1.9357,0,0,1-1.1267-2.4559l7.545-20.1122a1.913,1.913,0,0,1,1.81-1.1937,1.8826,1.8826,0,0,1,1.81,1.1937l7.545,20.1122a1.9358,1.9358,0,0,1-1.1268,2.4559,1.905,1.905,0,0,1-2.3905-1.0925Zm-1.3992-3.7539-2.7655-7.3411-2.7656,7.3411Z" style="fill:#d2121d"/><path d="M131.247,327.0655V306.9206a1.8711,1.8711,0,0,1,1.8784-1.8755,1.9007,1.9007,0,0,1,1.9127,1.8755v18.2337H144.29a1.8949,1.8949,0,0,1,0,3.79h-11.165A1.8736,1.8736,0,0,1,131.247,327.0655Z" style="fill:#d2121d"/><path d="M158.2269,306.9206a1.8509,1.8509,0,0,1,1.8785-1.8755,1.9,1.9,0,0,1,1.9111,1.8755v20.1449a1.9025,1.9025,0,0,1-1.9111,1.8784,1.8533,1.8533,0,0,1-1.8785-1.8784Z" style="fill:#d2121d"/><path d="M165.9788,316.6522a12.5364,12.5364,0,0,1,12.53-12.2918,12.772,12.772,0,0,1,7.8874,2.6644,1.9594,1.9594,0,0,1-2.39,3.1049,8.52,8.52,0,0,0-5.497-1.8755,9.0421,9.0421,0,0,0-6.1443,2.456,8.4288,8.4288,0,0,0-2.4932,5.942,8.3079,8.3079,0,0,0,2.4932,5.9419,9.0421,9.0421,0,0,0,6.1443,2.456,8.5871,8.5871,0,0,0,5.497-1.8755,2.0679,2.0679,0,0,1,2.7313.3751,2.0128,2.0128,0,0,1-.3409,2.73,12.7725,12.7725,0,0,1-7.8874,2.6643A12.4911,12.4911,0,0,1,165.9788,316.6522Z" style="fill:#d2121d"/><path d="M192.0032,327.0655V306.9206a1.8508,1.8508,0,0,1,1.8784-1.8755,1.88,1.88,0,0,1,1.9127,1.8755v8.1955h8.8415v-8.1955a1.8508,1.8508,0,0,1,1.8784-1.8755,1.8785,1.8785,0,0,1,1.9112,1.8755v20.1449a1.881,1.881,0,0,1-1.9112,1.8784,1.8532,1.8532,0,0,1-1.8784-1.8784V318.87h-8.8415v8.1955a1.8822,1.8822,0,0,1-1.9127,1.8784A1.8532,1.8532,0,0,1,192.0032,327.0655Z" style="fill:#d2121d"/><path d="M43.7162,210.0274c15.8879,0,24.463,8.8355,24.463,19.8859,0,10.52-6.4183,23.357-27.1452,24.4079l20.2536,29.3555h-17.15L25.094,254.3747H21.2l-6.2069,29.302H0l15.6765-73.6493Zm-15.94,13.5718-3.84,17.9926h15.52c10.7839,0,13.52-5.3138,13.52-10.1543,0-4.7869-3.8923-7.8383-11.0474-7.8383Z" style="fill:#2c2c2c"/><path d="M128.4621,253.27H91.3739l-3.63,16.9387h39.1407l-2.8936,13.4677H69.91l15.6765-73.6493h53.555l-2.8936,13.4676H97.6865l-3.4711,16.3077h37.14Z" style="fill:#2c2c2c"/><path d="M179.698,210.0274c21.0961,0,33.9862,13.0449,33.9862,31.0375,0,23.5684-16.4669,42.6118-45.2434,42.6118h-30.46l15.6765-73.6493Zm-13.993,13.73-9.8373,46.19h14.3086c17.5714,0,27.9876-11.6279,27.9876-27.1467,0-11.2051-6.3125-19.0434-20.1493-19.0434Z" style="fill:#2c2c2c"/><path d="M196.7447,64.8819a25.5014,25.5014,0,0,0-14.9524-1.9462L153.0456,39.2088A12.8472,12.8472,0,0,0,140.378,37.08L84.7041,57.8444A12.8471,12.8471,0,0,0,76.525,67.75h0A12.8476,12.8476,0,0,0,93.684,81.92l42.4317-15.8261a12.8477,12.8477,0,0,1,12.6676,2.1285l13.3642,11.0291a25.5535,25.5535,0,0,0,12.0693,31.5243l-2.974,17.6658a12.8472,12.8472,0,0,1-8.1791,9.905l-42.4682,15.8392a12.8476,12.8476,0,0,0-3.6914,21.9433l.0625.0517a12.8477,12.8477,0,0,0,12.6713,2.1315l55.6649-20.7611a12.8487,12.8487,0,0,0,8.18-9.9069l6.38-37.9358a25.5585,25.5585,0,0,0-3.1183-44.8262Z" style="fill:#d2121d"/><path d="M137.24,111.37l.0134-.08a12.847,12.847,0,0,0-17.159-14.1661l-42.47,15.84a12.8471,12.8471,0,0,1-12.6675-2.1293L51.61,99.8184A25.5414,25.5414,0,0,0,39.4964,68.4252l3-17.81a12.8481,12.8481,0,0,1,8.1792-9.9039L93.1088,24.8853A12.8477,12.8477,0,0,0,96.7994,2.9408h0A12.8482,12.8482,0,0,0,84.13.81L28.4565,21.5742a12.8479,12.8479,0,0,0-8.1791,9.9043L13.8822,69.4567A25.5706,25.5706,0,0,0,32.0392,116.23l28.6835,23.6811a12.8461,12.8461,0,0,0,12.6691,2.13L129.06,121.2791A12.848,12.848,0,0,0,137.24,111.37Z" style="fill:#2c2c2c"/><path d="M206.6963,204.1143v2.3524h-1.18v-5.885h2.0371a2.44,2.44,0,0,1,1.5744.4587,1.553,1.553,0,0,1,.5678,1.2793,1.29,1.29,0,0,1-.24.7821,1.6743,1.6743,0,0,1-.7012.5315,1.2668,1.2668,0,0,1,.75.5133,1.6283,1.6283,0,0,1,.2283.8893v.4324a2.1378,2.1378,0,0,0,.0667.5154.7087.7087,0,0,0,.2284.3981v.0849H208.81a.6533.6533,0,0,1-.2082-.4285,3.7617,3.7617,0,0,1-.0465-.5779v-.4164a.9352.9352,0,0,0-.24-.6851.9121.9121,0,0,0-.681-.2445Zm0-.9094h.8367a1.1067,1.1067,0,0,0,.74-.21.779.779,0,0,0,.2425-.6225.8565.8565,0,0,0-.2445-.6426.9877.9877,0,0,0-.7175-.2385h-.8569Z" style="fill:#2c2c2c"/><path d="M207.592,197.4324a6.0918,6.0918,0,1,0,6.0922,6.0922A6.099,6.099,0,0,0,207.592,197.4324Zm0,10.9516a4.86,4.86,0,1,1,4.86-4.8594A4.8654,4.8654,0,0,1,207.592,208.384Z" style="fill:#2c2c2c"/></svg>